<svg xmlns="http://www.w3.org/2000/svg" width="54" height="56"><g fill="#929292" fill-rule="evenodd"><path d="M11.41 46.262c.227.632.66.757 1.003.993 4.787 3.291 10.146 4.093 15.755 3.602 6.084-.533 11.381-2.882 15.64-7.401 1.045-1.11 2.067-2.271 2.495-3.808.606-2.182-.175-3.51-2.375-3.892-3.364-.584-6.426.519-9.326 2.028-4.603 2.398-8.556 6.084-13.96 6.917-1.373.212-2.794.608-4.165.803-1.66.236-3.338.339-5.067.758m-8.869-3.48c3.25-.062 6.287.19 9.32-.115 6.433-.647 12.248-2.908 17.574-6.597 5.247-3.633 11.149-4.997 17.436-4.881.095.001.19.008.285.013 4.668.23 6.603 2.92 5.042 7.374-2.478 7.073-7.451 11.801-14.094 14.905-2.191 1.023-4.536 1.847-6.805 2.162-5.073.706-10.194.423-15.128-1.374-5.843-2.13-10.122-6.132-13.63-11.487m39.638-32.427c-3.126-2.15-6.105-3.77-9.523-4.46-3.91-.79-7.83-.606-11.696.194-5.693 1.178-10.345 4.089-13.776 8.817-.891 1.228-1.504 2.647-.723 4.108.743 1.392 2.239 1.428 3.628 1.45 3.798.062 7.076-1.44 10.22-3.378 2.77-1.707 5.385-3.694 8.574-4.646 4.203-1.256 8.525-1.723 13.296-2.085m7.9 3.255c-2.611-.063-5.045-.405-7.514-.207-2.571.205-5.03.908-7.547 1.33-3.645.611-6.822 2.242-9.906 4.147-2.09 1.293-4.105 2.734-6.417 3.63-1.721.666-3.432 1.52-5.225 1.81-3.116.503-6.29.965-9.455.28-3.506-.761-4.71-2.92-3.634-6.606 1.581-5.413 5.123-9.426 9.655-12.525 9.832-6.723 25.042-6.85 34.345 1.35 2.21 1.947 4.13 4.13 5.698 6.79"/><path d="M31.077 26.264c1.691.224 2.292-.447 1.985-1.963-.045-.227.004-.473-.018-.706-.023-.253.113-.598-.296-.674-.43-.079-.535.201-.651.55-.313.933-.672 1.85-1.02 2.793M5.803 31.833c.774-.41 1.487-.756 2.163-1.158.443-.264.911-.632.73-1.218-.187-.612-.795-.684-1.293-.512-.623.214-1.847.073-1.724.749.124.686-.207 1.323.124 2.139m12.115-1.76c0 .19-.021.381.003.568.09.7.087 1.512.936 1.736.816.216 1.34-.342 1.71-.981.739-1.274 1.169-2.643 1.065-4.137-.046-.674-.407-1.281-1.009-1.414-.611-.135-1.262.106-1.67.747-.681 1.068-1 2.228-1.035 3.48M.146 40.083c.398-2.735.78-5.354 1.157-7.975.09-.615.485-1.43-.762-1.242-.113.017-.272-.082-.366-.173-.489-.467.132-3.259.804-3.391 3.01-.59 5.937-1.671 9.073-1.53.726.033 1.444.117 2.042.506.685.445 1.477.907 1.019 1.993-.143.34.013.72.336.846.474.187.462-.313.59-.568 1.274-2.536 3.095-4.535 5.688-5.755.552-.26 1.14-.49 1.738-.606 3.235-.625 5.285 1.49 4.905 4.78-.1.875-.42 1.724-.541 2.63 1.022-1.177 1.511-2.653 2.13-4.031 1.017-2.277 2.184-4.49 2.94-6.89.375-1.192 1.323-1.701 2.646-1.908 2.597-.408 2.557-.521 2.922 2.08.514 3.661 1.046 7.32 1.611 10.974.108.69.036 1.048-.747 1.168-1.074.166-2.132.444-3.19.7-.64.154-.78-.092-.82-.71-.036-.578.429-1.448-.345-1.7-1.164-.376-2.776.483-3.173 1.5-.43 1.105-.871 2.208-1.235 3.336-.204.633-.556.926-1.203.994-1.333.14-2.628.474-3.915.841-.219.063-.565-.082-.76-.244-.338-.28.074-.478.19-.674.653-1.118 1.338-2.22 2.012-3.327l-.294-.239c-.438.484-.905.944-1.307 1.457-1.306 1.67-3.186 2.592-5.038 3.269-2.544.93-5.196-1.53-5.051-4.37.016-.331.121-.66.123-.989.002-.342.387-.818-.1-1.002-.552-.209-.55.462-.629.711-.173.553-.574.862-.948 1.21-1.015.944-2.147 1.828-3.436 2.231-2.318.727-3.531 2.074-3.392 4.552.053.949-1.145 1.117-1.355 1.087-1.128-.162-2.074.558-3.32.458m45.287-14.506c1.35-.316 2.625-.052 2.895-1.584.215-1.214.484-2.42.707-3.633.036-.2.4-.58-.198-.587-.782-.01-1.69-.309-1.85.942-.203 1.606-.617 3.164-1.554 4.862m-5.935 4.97c-.252-1.828-.158-3.448 1.293-4.973 1.903-1.997 2.44-4.661 2.673-7.317.075-.855.42-1.13 1.181-1.277 2.662-.515 5.32-1.046 7.966-1.625.867-.188 1.327-.113 1.064.897-.242.929.264 2.105-1.014 2.715-.183.087.551.493.38 1.06-.258.858-.31 1.779-.43 2.676-.094.705-.341 1.536.938 1.315.12-.021.358.01.367.053.21 1.002-.017 1.992-.155 2.976-.101.711-.92.964-1.385.985-2.186.093-4.154 1.069-6.243 1.371-2.194.318-4.301 1.04-6.635 1.143"/></g></svg>