<svg xmlns="http://www.w3.org/2000/svg" width="147" height="36" fill="none"><path fill="#965EEB" d="M1.718 14.662c8.723 1.162 15.357 7.8 16.52 16.529l-6.742 1.72C10.999 26.568 6.338 21.905 0 21.408l1.718-6.746Z"/><path fill="#04E061" d="m14.464.033 6.763 1.733C19.96 12.704 11.197 20.943 0 21.416v-6.903c7.98-.504 13.95-6.5 14.464-14.48Z"/><path fill="#FF4053" d="M31.139 18.282C21.85 17.042 14.933 9.599 14.464.032h6.9c.495 6.343 5.155 11.007 11.495 11.504l-1.72 6.746Z"/><path fill="#0AF" d="M18.394 32.911h-6.898c.497-11.786 9.584-20.88 21.36-21.373v6.901c-7.965.496-13.948 6.493-14.462 14.472Z"/><path fill="#000" d="M74.9 18.49h3.394V8.679h3.52v-3.17H71.355v3.17H74.9v9.81ZM61.7 25.584a3.732 3.732 0 0 0-3.746 3.724 3.737 3.737 0 0 0 3.72 3.748c2.063 0 3.773-1.686 3.773-3.724a3.743 3.743 0 0 0-3.747-3.748Zm0 5.56a1.822 1.822 0 0 1-1.772-2.192 1.824 1.824 0 0 1 3.308-.635c.198.301.303.655.3 1.015a1.803 1.803 0 0 1-1.836 1.813ZM41.41 32.93h1.86v-5.408h2.717v5.409h1.86v-7.22H41.41v7.22ZM99.614 18.49h3.394V8.679h3.52v-3.17H96.094v3.17h3.52v9.81ZM45.459 14.616h7.492l1.459 3.874h3.77L51.146 0h-3.903L40.18 18.49h3.77l1.509-3.874Zm3.745-9.881 2.464 6.49H46.74l2.464-6.49ZM113.718 18.717c3.093 0 5.506-1.988 6.23-4.377h-3.535c-.353.779-1.308 1.282-2.691 1.282-1.759 0-3.092-1.132-3.167-2.716h9.629c.045-.376.07-.754.076-1.133a6.533 6.533 0 0 0-6.538-6.516A6.733 6.733 0 0 0 107.01 12c-.004 3.674 2.836 6.718 6.708 6.718Zm0-10.365c1.534 0 2.64.956 2.967 2.264h-6.057a3.167 3.167 0 0 1 3.09-2.264ZM53.654 25.585c-.854 0-1.734.445-2.11.93v-.804h-1.812v10.29h1.86v-3.875c.401.58 1.255.93 2.06.93 1.886 0 3.445-1.66 3.445-3.723 0-2.063-1.556-3.748-3.443-3.748Zm-.296 5.56a1.824 1.824 0 1 1 1.835-1.812 1.804 1.804 0 0 1-1.84 1.812h.005ZM114.498 23.799h-1.912v1.912h-1.231v1.733h1.132v3.07c0 1.736.955 2.49 2.312 2.49.457.005.911-.08 1.335-.25v-1.811a1.925 1.925 0 0 1-.728.148c-.578 0-1.006-.252-1.006-1.032v-2.615h1.731v-1.733H114.5l-.002-1.912ZM120.356 25.584a3.76 3.76 0 0 0-3.772 3.748c0 2.038 1.71 3.724 3.772 3.724a3.732 3.732 0 0 0 3.734-3.736 3.738 3.738 0 0 0-3.734-3.736Zm0 5.56a1.825 1.825 0 1 1 1.842-1.812 1.799 1.799 0 0 1-1.138 1.686 1.803 1.803 0 0 1-.704.127ZM110.524 25.71h-1.91v7.22h1.91v-7.22ZM109.645 22.414a1.404 1.404 0 0 0-1.408 1.41 1.315 1.315 0 0 0 .832 1.265c.167.066.346.098.526.093a1.38 1.38 0 0 0 1.327-.821 1.38 1.38 0 0 0 .02-1.077 1.39 1.39 0 0 0-.758-.766 1.383 1.383 0 0 0-.539-.104ZM143.737 5.51v1.558c-.628-.88-2.187-1.81-3.746-1.81-3.411 0-6.31 2.867-6.31 6.74 0 3.826 2.891 6.719 6.31 6.719 1.458 0 2.967-.806 3.746-1.781v1.56H147V5.51h-3.263Zm-3.344 9.763a3.278 3.278 0 0 1-3.045-2.018 3.282 3.282 0 1 1 6.309-1.247 3.267 3.267 0 0 1-3.264 3.265Z"/><path fill="#000" d="M133.58 5.508h-3.998l-4.048 5.461v-5.46h-3.343v12.98h3.343v-6.036l4.4 6.037h4.124l-5.061-6.822 4.583-6.16ZM81.084 25.71h-2.186l-2.289 3.045v-3.044h-1.86v7.22h1.86v-3.346l2.514 3.346h2.214l-2.874-3.833 2.621-3.387ZM103.989 30.29l-1.66-4.58h-2.012l2.691 7.22h2.012l2.739-7.22h-2.011l-1.759 4.58ZM70.726 14.868c0-1.686-1.056-2.671-2.615-3.019 1.081-.453 1.885-1.383 1.885-2.994 0-1.534-1.23-3.345-3.795-3.345h-6.763v12.98h6.636c3.068 0 4.652-1.786 4.652-3.622Zm-8.045-6.642h2.615c1.038 0 1.483.554 1.483 1.259 0 .705-.629 1.282-1.483 1.282H62.68V8.226Zm3.067 7.548h-3.067v-2.769h3.067c1.056 0 1.66.529 1.66 1.36 0 .831-.604 1.409-1.66 1.409ZM69.948 25.585c-2.037 0-3.621 1.686-3.621 3.748 0 2.038 1.508 3.724 3.62 3.724a3.41 3.41 0 0 0 3.344-2.44h-1.835c-.227.478-.705.729-1.508.729-.981 0-1.71-.628-1.761-1.51h5.23c.024-.226.049-.453.049-.628 0-1.937-1.458-3.623-3.518-3.623Zm-1.71 2.968a1.743 1.743 0 0 1 1.71-1.257 1.639 1.639 0 0 1 1.658 1.258h-3.369ZM81.612 27.497h2.062v5.434h1.885v-5.434h2.062V25.71h-6.009v1.786ZM95.592 11.974a6.72 6.72 0 0 0-4.147-6.212 6.71 6.71 0 0 0-7.321 1.464 6.72 6.72 0 0 0 4.78 11.461 6.686 6.686 0 0 0 6.184-4.146 6.696 6.696 0 0 0 .504-2.567Zm-6.714 3.265a3.261 3.261 0 0 1-3.015-2.016 3.268 3.268 0 0 1 2.379-4.452 3.261 3.261 0 0 1 3.9 3.203 3.27 3.27 0 0 1-2.014 3.022c-.396.164-.82.25-1.25.25v-.007ZM95.064 22.642l-3.922 10.295h2.11l.793-2.14h4.13l.785 2.14h2.087l-3.822-10.29-2.161-.005Zm-.322 6.263 1.378-3.722 1.364 3.722h-2.742Z"/></svg>